<svg xmlns="http://www.w3.org/2000/svg" width="600" height="380" viewBox="0 0 600 380">
    <text x="300" y="32" text-anchor="middle" font-size="15" font-weight="bold" fill="#333">Total Score: deob vs raw</text>
    <rect x="50" y="15" width="14" height="14" fill="#4a9eff" rx="2"/><text x="70" y="27" font-size="12" fill="#666">deob</text><rect x="110" y="15" width="14" height="14" fill="#ff6b6b" rx="2"/><text x="130" y="27" font-size="12" fill="#666">raw</text><line x1="50" y1="50" x2="580" y2="50" stroke="#eee" stroke-dasharray="4,4"/><text x="40" y="54" text-anchor="end" font-size="11" fill="#999">0.9</text><line x1="50" y1="120" x2="580" y2="120" stroke="#eee" stroke-dasharray="4,4"/><text x="40" y="124" text-anchor="end" font-size="11" fill="#999">0.7</text><line x1="50" y1="190" x2="580" y2="190" stroke="#eee" stroke-dasharray="4,4"/><text x="40" y="194" text-anchor="end" font-size="11" fill="#999">0.5</text><line x1="50" y1="260" x2="580" y2="260" stroke="#eee" stroke-dasharray="4,4"/><text x="40" y="264" text-anchor="end" font-size="11" fill="#999">0.2</text><line x1="50" y1="330" x2="580" y2="330" stroke="#eee" stroke-dasharray="4,4"/><text x="40" y="334" text-anchor="end" font-size="11" fill="#999">0.0</text><rect x="55" y="164.67525496511" width="48" height="165.32474503489" fill="#4a9eff" rx="2"/><text x="79" y="159.67525496511" text-anchor="middle" font-size="11" fill="#333">0.55</text><rect x="109" y="191.72839506172838" width="48" height="138.27160493827162" fill="#ff6b6b" rx="2"/><text x="133" y="186.72839506172838" text-anchor="middle" font-size="11" fill="#333">0.46</text><text x="103" y="365" text-anchor="middle" font-size="12" fill="#666">A (Easy)</text><rect x="161" y="212.7697262479871" width="48" height="117.23027375201289" fill="#4a9eff" rx="2"/><text x="185" y="207.7697262479871" text-anchor="middle" font-size="11" fill="#333">0.39</text><rect x="215" y="239.82286634460547" width="48" height="90.17713365539453" fill="#ff6b6b" rx="2"/><text x="239" y="234.82286634460547" text-anchor="middle" font-size="11" fill="#333">0.30</text><text x="209" y="365" text-anchor="middle" font-size="12" fill="#666">B (Medium)</text><rect x="267" y="86.52173913043475" width="48" height="243.47826086956525" fill="#4a9eff" rx="2"/><text x="291" y="81.52173913043475" text-anchor="middle" font-size="11" fill="#333">0.81</text><rect x="321" y="101.55126140633388" width="48" height="228.44873859366612" fill="#ff6b6b" rx="2"/><text x="345" y="96.55126140633388" text-anchor="middle" font-size="11" fill="#333">0.76</text><text x="315" y="365" text-anchor="middle" font-size="12" fill="#666">C (Medium)</text><rect x="373" y="107.56307031669351" width="48" height="222.4369296833065" fill="#4a9eff" rx="2"/><text x="397" y="102.56307031669351" text-anchor="middle" font-size="11" fill="#333">0.74</text><rect x="427" y="275.8937198067633" width="48" height="54.106280193236714" fill="#ff6b6b" rx="2"/><text x="451" y="270.8937198067633" text-anchor="middle" font-size="11" fill="#333">0.18</text><text x="421" y="365" text-anchor="middle" font-size="12" fill="#666">D (Hard)</text><rect x="479" y="155.65754159957058" width="48" height="174.34245840042942" fill="#4a9eff" rx="2"/><text x="503" y="150.65754159957058" text-anchor="middle" font-size="11" fill="#333">0.58</text><rect x="533" y="254.85238862050454" width="48" height="75.14761137949544" fill="#ff6b6b" rx="2"/><text x="557" y="249.85238862050454" text-anchor="middle" font-size="11" fill="#333">0.25</text><text x="527" y="365" text-anchor="middle" font-size="12" fill="#666">E (Hard)</text>
  </svg>