<svg xmlns="http://www.w3.org/2000/svg" width="600" height="380" viewBox="0 0 600 380">
    <text x="300" y="32" text-anchor="middle" font-size="15" font-weight="bold" fill="#333">Total Score: deob vs raw</text>
    <rect x="50" y="15" width="14" height="14" fill="#4a9eff" rx="2"/><text x="70" y="27" font-size="12" fill="#666">deob</text><rect x="110" y="15" width="14" height="14" fill="#ff6b6b" rx="2"/><text x="130" y="27" font-size="12" fill="#666">raw</text><line x1="50" y1="50" x2="580" y2="50" stroke="#eee" stroke-dasharray="4,4"/><text x="40" y="54" text-anchor="end" font-size="11" fill="#999">0.9</text><line x1="50" y1="120" x2="580" y2="120" stroke="#eee" stroke-dasharray="4,4"/><text x="40" y="124" text-anchor="end" font-size="11" fill="#999">0.7</text><line x1="50" y1="190" x2="580" y2="190" stroke="#eee" stroke-dasharray="4,4"/><text x="40" y="194" text-anchor="end" font-size="11" fill="#999">0.5</text><line x1="50" y1="260" x2="580" y2="260" stroke="#eee" stroke-dasharray="4,4"/><text x="40" y="264" text-anchor="end" font-size="11" fill="#999">0.2</text><line x1="50" y1="330" x2="580" y2="330" stroke="#eee" stroke-dasharray="4,4"/><text x="40" y="334" text-anchor="end" font-size="11" fill="#999">0.0</text><rect x="55" y="172.62990455991513" width="48" height="157.37009544008487" fill="#4a9eff" rx="2"/><text x="79" y="167.62990455991513" text-anchor="middle" font-size="11" fill="#333">0.53</text><rect x="109" y="193.41463414634143" width="48" height="136.58536585365857" fill="#ff6b6b" rx="2"/><text x="133" y="188.41463414634143" text-anchor="middle" font-size="11" fill="#333">0.46</text><text x="103" y="365" text-anchor="middle" font-size="12" fill="#666">A (Easy)</text><rect x="161" y="211.23011664899255" width="48" height="118.76988335100745" fill="#4a9eff" rx="2"/><text x="185" y="206.23011664899255" text-anchor="middle" font-size="11" fill="#333">0.40</text><rect x="215" y="237.95334040296922" width="48" height="92.04665959703077" fill="#ff6b6b" rx="2"/><text x="239" y="232.95334040296922" text-anchor="middle" font-size="11" fill="#333">0.31</text><text x="209" y="365" text-anchor="middle" font-size="12" fill="#666">B (Medium)</text><rect x="267" y="86.52173913043475" width="48" height="243.47826086956525" fill="#4a9eff" rx="2"/><text x="291" y="81.52173913043475" text-anchor="middle" font-size="11" fill="#333">0.82</text><rect x="321" y="101.36797454931067" width="48" height="228.63202545068933" fill="#ff6b6b" rx="2"/><text x="345" y="96.36797454931067" text-anchor="middle" font-size="11" fill="#333">0.77</text><text x="315" y="365" text-anchor="middle" font-size="12" fill="#666">C (Medium)</text><rect x="373" y="110.27571580063622" width="48" height="219.72428419936378" fill="#4a9eff" rx="2"/><text x="397" y="105.27571580063622" text-anchor="middle" font-size="11" fill="#333">0.74</text><rect x="427" y="285.4612937433722" width="48" height="44.53870625662779" fill="#ff6b6b" rx="2"/><text x="451" y="280.4612937433722" text-anchor="middle" font-size="11" fill="#333">0.15</text><text x="421" y="365" text-anchor="middle" font-size="12" fill="#666">D (Hard)</text><rect x="479" y="148.87592788971367" width="48" height="181.12407211028633" fill="#4a9eff" rx="2"/><text x="503" y="143.87592788971367" text-anchor="middle" font-size="11" fill="#333">0.61</text><rect x="533" y="252.79957582184517" width="48" height="77.20042417815483" fill="#ff6b6b" rx="2"/><text x="557" y="247.79957582184517" text-anchor="middle" font-size="11" fill="#333">0.26</text><text x="527" y="365" text-anchor="middle" font-size="12" fill="#666">E (Hard)</text>
  </svg>