<svg xmlns="http://www.w3.org/2000/svg" width="600" height="380" viewBox="0 0 600 380">
    <text x="300" y="32" text-anchor="middle" font-size="15" font-weight="bold" fill="#333">Total Score: deob vs raw</text>
    <rect x="50" y="15" width="14" height="14" fill="#4a9eff" rx="2"/><text x="70" y="27" font-size="12" fill="#666">deob</text><rect x="110" y="15" width="14" height="14" fill="#ff6b6b" rx="2"/><text x="130" y="27" font-size="12" fill="#666">raw</text><line x1="50" y1="50" x2="580" y2="50" stroke="#eee" stroke-dasharray="4,4"/><text x="40" y="54" text-anchor="end" font-size="11" fill="#999">1.0</text><line x1="50" y1="120" x2="580" y2="120" stroke="#eee" stroke-dasharray="4,4"/><text x="40" y="124" text-anchor="end" font-size="11" fill="#999">0.7</text><line x1="50" y1="190" x2="580" y2="190" stroke="#eee" stroke-dasharray="4,4"/><text x="40" y="194" text-anchor="end" font-size="11" fill="#999">0.5</text><line x1="50" y1="260" x2="580" y2="260" stroke="#eee" stroke-dasharray="4,4"/><text x="40" y="264" text-anchor="end" font-size="11" fill="#999">0.2</text><line x1="50" y1="330" x2="580" y2="330" stroke="#eee" stroke-dasharray="4,4"/><text x="40" y="334" text-anchor="end" font-size="11" fill="#999">0.0</text><rect x="55" y="162.7920377160817" width="48" height="167.2079622839183" fill="#4a9eff" rx="2"/><text x="79" y="157.7920377160817" text-anchor="middle" font-size="11" fill="#333">0.57</text><rect x="109" y="197.9937139863803" width="48" height="132.0062860136197" fill="#ff6b6b" rx="2"/><text x="133" y="192.9937139863803" text-anchor="middle" font-size="11" fill="#333">0.45</text><text x="103" y="365" text-anchor="middle" font-size="12" fill="#666">A (Easy)</text><rect x="161" y="209.72760607647982" width="48" height="120.27239392352018" fill="#4a9eff" rx="2"/><text x="185" y="204.72760607647982" text-anchor="middle" font-size="11" fill="#333">0.41</text><rect x="215" y="236.12886327920376" width="48" height="93.87113672079623" fill="#ff6b6b" rx="2"/><text x="239" y="231.12886327920376" text-anchor="middle" font-size="11" fill="#333">0.32</text><text x="209" y="365" text-anchor="middle" font-size="12" fill="#666">B (Medium)</text><rect x="267" y="86.52173913043475" width="48" height="243.47826086956525" fill="#4a9eff" rx="2"/><text x="291" y="81.52173913043475" text-anchor="middle" font-size="11" fill="#333">0.83</text><rect x="321" y="104.12257726558406" width="48" height="225.87742273441594" fill="#ff6b6b" rx="2"/><text x="345" y="99.12257726558406" text-anchor="middle" font-size="11" fill="#333">0.77</text><text x="315" y="365" text-anchor="middle" font-size="12" fill="#666">C (Medium)</text><rect x="373" y="109.98952331063381" width="48" height="220.0104766893662" fill="#4a9eff" rx="2"/><text x="397" y="104.98952331063381" text-anchor="middle" font-size="11" fill="#333">0.75</text><rect x="427" y="283.0644316396019" width="48" height="46.935568360398115" fill="#ff6b6b" rx="2"/><text x="451" y="278.0644316396019" text-anchor="middle" font-size="11" fill="#333">0.16</text><text x="421" y="365" text-anchor="middle" font-size="12" fill="#666">D (Hard)</text><rect x="479" y="151.05814562598215" width="48" height="178.94185437401785" fill="#4a9eff" rx="2"/><text x="503" y="146.05814562598215" text-anchor="middle" font-size="11" fill="#333">0.61</text><rect x="533" y="253.72970141435306" width="48" height="76.27029858564694" fill="#ff6b6b" rx="2"/><text x="557" y="248.72970141435306" text-anchor="middle" font-size="11" fill="#333">0.26</text><text x="527" y="365" text-anchor="middle" font-size="12" fill="#666">E (Hard)</text>
  </svg>