<svg xmlns="http://www.w3.org/2000/svg" width="600" height="420" viewBox="0 0 600 420">
    <text x="300" y="32" text-anchor="middle" font-size="15" font-weight="bold" fill="#333">Input Token Consumption</text>
    <rect x="50" y="15" width="14" height="14" fill="#4a9eff" rx="2"/><text x="70" y="27" font-size="12" fill="#666">deob</text><rect x="110" y="15" width="14" height="14" fill="#ff6b6b" rx="2"/><text x="130" y="27" font-size="12" fill="#666">raw</text><line x1="50" y1="50" x2="580" y2="50" stroke="#eee" stroke-dasharray="4,4"/><text x="40" y="54" text-anchor="end" font-size="11" fill="#999">74617.8</text><line x1="50" y1="130" x2="580" y2="130" stroke="#eee" stroke-dasharray="4,4"/><text x="40" y="134" text-anchor="end" font-size="11" fill="#999">55963.3</text><line x1="50" y1="210" x2="580" y2="210" stroke="#eee" stroke-dasharray="4,4"/><text x="40" y="214" text-anchor="end" font-size="11" fill="#999">37308.9</text><line x1="50" y1="290" x2="580" y2="290" stroke="#eee" stroke-dasharray="4,4"/><text x="40" y="294" text-anchor="end" font-size="11" fill="#999">18654.4</text><line x1="50" y1="370" x2="580" y2="370" stroke="#eee" stroke-dasharray="4,4"/><text x="40" y="374" text-anchor="end" font-size="11" fill="#999">0.0</text><rect x="55" y="305.6721423521883" width="48" height="64.32785764781168" fill="#4a9eff" rx="2"/><text x="79" y="300.6721423521883" text-anchor="middle" font-size="11" fill="#333">15000.00</text><rect x="109" y="287.8833454506468" width="48" height="82.1166545493532" fill="#ff6b6b" rx="2"/><text x="133" y="282.8833454506468" text-anchor="middle" font-size="11" fill="#333">19148.00</text><text x="103" y="405" text-anchor="middle" font-size="12" fill="#666">A</text><rect x="161" y="262.7869039203139" width="48" height="107.21309607968614" fill="#4a9eff" rx="2"/><text x="185" y="257.7869039203139" text-anchor="middle" font-size="11" fill="#333">25000.00</text><rect x="215" y="287.8833454506468" width="48" height="82.1166545493532" fill="#ff6b6b" rx="2"/><text x="239" y="282.8833454506468" text-anchor="middle" font-size="11" fill="#333">19148.00</text><text x="209" y="405" text-anchor="middle" font-size="12" fill="#666">B</text><rect x="267" y="242.64799595270563" width="48" height="127.35200404729439" fill="#4a9eff" rx="2"/><text x="291" y="237.64799595270563" text-anchor="middle" font-size="11" fill="#333">29696.00</text><rect x="321" y="287.8833454506468" width="48" height="82.1166545493532" fill="#ff6b6b" rx="2"/><text x="345" y="282.8833454506468" text-anchor="middle" font-size="11" fill="#333">19148.00</text><text x="315" y="405" text-anchor="middle" font-size="12" fill="#666">C</text><rect x="373" y="194.05902080939185" width="48" height="175.94097919060815" fill="#4a9eff" rx="2"/><text x="397" y="189.05902080939185" text-anchor="middle" font-size="11" fill="#333">41026.00</text><rect x="427" y="112.02384821305924" width="48" height="257.97615178694076" fill="#ff6b6b" rx="2"/><text x="451" y="107.02384821305924" text-anchor="middle" font-size="11" fill="#333">60155.00</text><text x="421" y="405" text-anchor="middle" font-size="12" fill="#666">D</text><rect x="479" y="134.8130639157573" width="48" height="235.1869360842427" fill="#4a9eff" rx="2"/><text x="503" y="129.8130639157573" text-anchor="middle" font-size="11" fill="#333">54841.00</text><rect x="533" y="91.73913043478262" width="48" height="278.2608695652174" fill="#ff6b6b" rx="2"/><text x="557" y="86.73913043478262" text-anchor="middle" font-size="11" fill="#333">64885.00</text><text x="527" y="405" text-anchor="middle" font-size="12" fill="#666">E</text>
  </svg>