<svg xmlns="http://www.w3.org/2000/svg" width="600" height="380" viewBox="0 0 600 380">
    <text x="300" y="32" text-anchor="middle" font-size="15" font-weight="bold" fill="#333">Total Score: deob vs raw</text>
    <rect x="50" y="15" width="14" height="14" fill="#4a9eff" rx="2"/><text x="70" y="27" font-size="12" fill="#666">deob</text><rect x="110" y="15" width="14" height="14" fill="#ff6b6b" rx="2"/><text x="130" y="27" font-size="12" fill="#666">raw</text><line x1="50" y1="50" x2="580" y2="50" stroke="#eee" stroke-dasharray="4,4"/><text x="40" y="54" text-anchor="end" font-size="11" fill="#999">1.0</text><line x1="50" y1="120" x2="580" y2="120" stroke="#eee" stroke-dasharray="4,4"/><text x="40" y="124" text-anchor="end" font-size="11" fill="#999">0.7</text><line x1="50" y1="190" x2="580" y2="190" stroke="#eee" stroke-dasharray="4,4"/><text x="40" y="194" text-anchor="end" font-size="11" fill="#999">0.5</text><line x1="50" y1="260" x2="580" y2="260" stroke="#eee" stroke-dasharray="4,4"/><text x="40" y="264" text-anchor="end" font-size="11" fill="#999">0.2</text><line x1="50" y1="330" x2="580" y2="330" stroke="#eee" stroke-dasharray="4,4"/><text x="40" y="334" text-anchor="end" font-size="11" fill="#999">0.0</text><rect x="55" y="156.08695652173913" width="48" height="173.91304347826087" fill="#4a9eff" rx="2"/><text x="79" y="151.08695652173913" text-anchor="middle" font-size="11" fill="#333">0.60</text><rect x="109" y="193.76811594202897" width="48" height="136.23188405797103" fill="#ff6b6b" rx="2"/><text x="133" y="188.76811594202897" text-anchor="middle" font-size="11" fill="#333">0.47</text><text x="103" y="365" text-anchor="middle" font-size="12" fill="#666">A (Easy)</text><rect x="161" y="208.26086956521738" width="48" height="121.73913043478262" fill="#4a9eff" rx="2"/><text x="185" y="203.26086956521738" text-anchor="middle" font-size="11" fill="#333">0.42</text><rect x="215" y="231.44927536231882" width="48" height="98.55072463768118" fill="#ff6b6b" rx="2"/><text x="239" y="226.44927536231882" text-anchor="middle" font-size="11" fill="#333">0.34</text><text x="209" y="365" text-anchor="middle" font-size="12" fill="#666">B (Medium)</text><rect x="267" y="86.52173913043475" width="48" height="243.47826086956525" fill="#4a9eff" rx="2"/><text x="291" y="81.52173913043475" text-anchor="middle" font-size="11" fill="#333">0.84</text><rect x="321" y="101.01449275362313" width="48" height="228.98550724637687" fill="#ff6b6b" rx="2"/><text x="345" y="96.01449275362313" text-anchor="middle" font-size="11" fill="#333">0.79</text><text x="315" y="365" text-anchor="middle" font-size="12" fill="#666">C (Medium)</text><rect x="373" y="112.60869565217388" width="48" height="217.39130434782612" fill="#4a9eff" rx="2"/><text x="397" y="107.60869565217388" text-anchor="middle" font-size="11" fill="#333">0.75</text><rect x="427" y="280.7246376811594" width="48" height="49.27536231884059" fill="#ff6b6b" rx="2"/><text x="451" y="275.7246376811594" text-anchor="middle" font-size="11" fill="#333">0.17</text><text x="421" y="365" text-anchor="middle" font-size="12" fill="#666">D (Hard)</text><rect x="479" y="158.98550724637678" width="48" height="171.01449275362322" fill="#4a9eff" rx="2"/><text x="503" y="153.98550724637678" text-anchor="middle" font-size="11" fill="#333">0.59</text><rect x="533" y="254.63768115942028" width="48" height="75.36231884057972" fill="#ff6b6b" rx="2"/><text x="557" y="249.63768115942028" text-anchor="middle" font-size="11" fill="#333">0.26</text><text x="527" y="365" text-anchor="middle" font-size="12" fill="#666">E (Hard)</text>
  </svg>