<svg xmlns="http://www.w3.org/2000/svg" width="600" height="420" viewBox="0 0 600 420">
    <text x="300" y="32" text-anchor="middle" font-size="15" font-weight="bold" fill="#333">Analysis Time (seconds)</text>
    <rect x="50" y="15" width="14" height="14" fill="#4a9eff" rx="2"/><text x="70" y="27" font-size="12" fill="#666">deob</text><rect x="110" y="15" width="14" height="14" fill="#ff6b6b" rx="2"/><text x="130" y="27" font-size="12" fill="#666">raw</text><line x1="50" y1="50" x2="580" y2="50" stroke="#eee" stroke-dasharray="4,4"/><text x="40" y="54" text-anchor="end" font-size="11" fill="#999">460.0</text><line x1="50" y1="130" x2="580" y2="130" stroke="#eee" stroke-dasharray="4,4"/><text x="40" y="134" text-anchor="end" font-size="11" fill="#999">345.0</text><line x1="50" y1="210" x2="580" y2="210" stroke="#eee" stroke-dasharray="4,4"/><text x="40" y="214" text-anchor="end" font-size="11" fill="#999">230.0</text><line x1="50" y1="290" x2="580" y2="290" stroke="#eee" stroke-dasharray="4,4"/><text x="40" y="294" text-anchor="end" font-size="11" fill="#999">115.0</text><line x1="50" y1="370" x2="580" y2="370" stroke="#eee" stroke-dasharray="4,4"/><text x="40" y="374" text-anchor="end" font-size="11" fill="#999">0.0</text><rect x="55" y="349.1304347826087" width="48" height="20.869565217391308" fill="#4a9eff" rx="2"/><text x="79" y="344.1304347826087" text-anchor="middle" font-size="11" fill="#333">30.00</text><rect x="109" y="314.3478260869565" width="48" height="55.652173913043484" fill="#ff6b6b" rx="2"/><text x="133" y="309.3478260869565" text-anchor="middle" font-size="11" fill="#333">80.00</text><text x="103" y="405" text-anchor="middle" font-size="12" fill="#666">A</text><rect x="161" y="345.6521739130435" width="48" height="24.347826086956523" fill="#4a9eff" rx="2"/><text x="185" y="340.6521739130435" text-anchor="middle" font-size="11" fill="#333">35.00</text><rect x="215" y="328.2608695652174" width="48" height="41.739130434782616" fill="#ff6b6b" rx="2"/><text x="239" y="323.2608695652174" text-anchor="middle" font-size="11" fill="#333">60.00</text><text x="209" y="405" text-anchor="middle" font-size="12" fill="#666">B</text><rect x="267" y="345.6521739130435" width="48" height="24.347826086956523" fill="#4a9eff" rx="2"/><text x="291" y="340.6521739130435" text-anchor="middle" font-size="11" fill="#333">35.00</text><rect x="321" y="314.3478260869565" width="48" height="55.652173913043484" fill="#ff6b6b" rx="2"/><text x="345" y="309.3478260869565" text-anchor="middle" font-size="11" fill="#333">80.00</text><text x="315" y="405" text-anchor="middle" font-size="12" fill="#666">C</text><rect x="373" y="290" width="48" height="80.00000000000001" fill="#4a9eff" rx="2"/><text x="397" y="285" text-anchor="middle" font-size="11" fill="#333">115.00</text><rect x="427" y="91.73913043478257" width="48" height="278.26086956521743" fill="#ff6b6b" rx="2"/><text x="451" y="86.73913043478257" text-anchor="middle" font-size="11" fill="#333">400.00</text><text x="421" y="405" text-anchor="middle" font-size="12" fill="#666">D</text><rect x="479" y="237.82608695652172" width="48" height="132.17391304347828" fill="#4a9eff" rx="2"/><text x="503" y="232.82608695652172" text-anchor="middle" font-size="11" fill="#333">190.00</text><rect x="533" y="192.6086956521739" width="48" height="177.3913043478261" fill="#ff6b6b" rx="2"/><text x="557" y="187.6086956521739" text-anchor="middle" font-size="11" fill="#333">255.00</text><text x="527" y="405" text-anchor="middle" font-size="12" fill="#666">E</text>
  </svg>