<svg xmlns="http://www.w3.org/2000/svg" width="500" height="420" viewBox="0 0 500 420">
    <text x="250" y="30" text-anchor="middle" font-size="14" font-weight="bold" fill="#333">Scenario D: 8-Dimension Comparison</text>
    <polygon points="250,190 274.74873734152914,200.25126265847084 285,225 274.74873734152914,249.74873734152916 250,260 225.25126265847084,249.74873734152916 215,225 225.25126265847084,200.25126265847084 " fill="none" stroke="#e0e0e0" stroke-width="1"/><polygon points="250,155 299.49747468305833,175.50252531694167 320,225 299.49747468305833,274.49747468305833 250,295 200.50252531694167,274.49747468305833 180,225 200.50252531694167,175.50252531694167 " fill="none" stroke="#e0e0e0" stroke-width="1"/><polygon points="250,120 324.2462120245875,150.75378797541254 355,225 324.2462120245875,299.24621202458746 250,330 175.75378797541254,299.2462120245875 145,225 175.75378797541248,150.75378797541254 " fill="none" stroke="#e0e0e0" stroke-width="1"/><polygon points="250,85 348.99494936611666,126.00505063388336 390,225 348.99494936611666,323.99494936611666 250,365 151.00505063388334,323.99494936611666 110,225.00000000000003 151.00505063388334,126.00505063388336 " fill="none" stroke="#e0e0e0" stroke-width="1"/><line x1="250" y1="225" x2="250" y2="85" stroke="#ddd"/><text x="250" y="60" text-anchor="middle" font-size="11" fill="#666">Purpose</text><line x1="250" y1="225" x2="348.99494936611666" y2="126.00505063388336" stroke="#ddd"/><text x="366.6726188957804" y="108.32738110421967" text-anchor="middle" font-size="11" fill="#666">Functions</text><line x1="250" y1="225" x2="390" y2="225" stroke="#ddd"/><text x="415" y="225" text-anchor="middle" font-size="11" fill="#666">Endpoints</text><line x1="250" y1="225" x2="348.99494936611666" y2="323.99494936611666" stroke="#ddd"/><text x="366.6726188957804" y="341.6726188957803" text-anchor="middle" font-size="11" fill="#666">Security</text><line x1="250" y1="225" x2="250" y2="365" stroke="#ddd"/><text x="250" y="390" text-anchor="middle" font-size="11" fill="#666">DataFlow</text><line x1="250" y1="225" x2="151.00505063388334" y2="323.99494936611666" stroke="#ddd"/><text x="133.32738110421968" y="341.6726188957804" text-anchor="middle" font-size="11" fill="#666">Vars</text><line x1="250" y1="225" x2="110" y2="225.00000000000003" stroke="#ddd"/><text x="85" y="225.00000000000003" text-anchor="middle" font-size="11" fill="#666">Entry</text><line x1="250" y1="225" x2="151.00505063388334" y2="126.00505063388336" stroke="#ddd"/><text x="133.32738110421963" y="108.32738110421967" text-anchor="middle" font-size="11" fill="#666">Token</text><polygon points="250,101.8 331.17585848021565,143.82414151978435 390,225 287.6180807591243,262.6180807591243 250,306.2 151.00505063388334,323.99494936611666 110,225.00000000000003 235.1507575950825,210.1507575950825 " fill="#4a9eff" fill-opacity="0.15" stroke="#4a9eff" stroke-width="2"/><polygon points="250,225 266.8291413922398,208.17085860776018 250,225 265.8391918985787,240.83919189857866 250,272.6 250,225 110,225.00000000000003 235.1507575950825,210.1507575950825 " fill="#ff6b6b" fill-opacity="0.15" stroke="#ff6b6b" stroke-width="2"/>
    <rect x="15" y="15" width="14" height="14" fill="#4a9eff" rx="2"/>
    <text x="35" y="27" font-size="12" fill="#666">deob</text>
    <rect x="80" y="15" width="14" height="14" fill="#ff6b6b" rx="2"/>
    <text x="100" y="27" font-size="12" fill="#666">raw</text>
  </svg>