<svg xmlns="http://www.w3.org/2000/svg" width="420" height="320"><text x="210" y="20" text-anchor="middle" font-size="13" font-weight="bold">Scenario B</text><polygon points="210,138 227.20029261429664,146.28322435910786 231.44841406800012,164.8954605470389 219.54544226058627,179.82131509385323 200.45455773941373,179.82131509385323 188.55158593199988,164.8954605470389 192.79970738570336,146.28322435910786" fill="none" stroke="#ddd" stroke-width="1"/><polygon points="210,116 244.40058522859331,132.56644871821572 252.89682813600024,169.79092109407785 229.09088452117257,199.64263018770646 190.90911547882746,199.64263018770646 167.10317186399976,169.79092109407785 175.59941477140669,132.56644871821572" fill="none" stroke="#ddd" stroke-width="1"/><polygon points="210,93.99999999999999 261.60087784289,118.84967307732359 274.3452422040004,174.68638164111675 238.63632678175884,219.4639452815597 181.36367321824116,219.4639452815597 145.65475779599961,174.68638164111675 158.39912215711,118.84967307732359" fill="none" stroke="#ddd" stroke-width="1"/><polygon points="210,72 278.80117045718663,105.13289743643145 295.7936562720005,179.58184218815566 248.18176904234514,239.2852603754129 171.8182309576549,239.2852603754129 124.20634372799952,179.5818421881557 141.19882954281337,105.13289743643145" fill="none" stroke="#ddd" stroke-width="1"/><polygon points="210,50 296.0014630714833,91.41612179553931 317.2420703400006,184.4773027351946 257.7272113029314,259.1065754692661 162.27278869706862,259.1065754692661 102.7579296599994,184.4773027351946 123.99853692851671,91.41612179553933" fill="none" stroke="#ddd" stroke-width="1"/><line x1="210" y1="160" x2="210" y2="50" stroke="#eee" stroke-width="1"/><line x1="210" y1="160" x2="296.0014630714833" y2="91.41612179553931" stroke="#eee" stroke-width="1"/><line x1="210" y1="160" x2="317.2420703400006" y2="184.4773027351946" stroke="#eee" stroke-width="1"/><line x1="210" y1="160" x2="257.7272113029314" y2="259.1065754692661" stroke="#eee" stroke-width="1"/><line x1="210" y1="160" x2="162.27278869706862" y2="259.1065754692661" stroke="#eee" stroke-width="1"/><line x1="210" y1="160" x2="102.7579296599994" y2="184.4773027351946" stroke="#eee" stroke-width="1"/><line x1="210" y1="160" x2="123.99853692851671" y2="91.41612179553933" stroke="#eee" stroke-width="1"/><polygon points="210,55.5 289.98136065647947,96.21699326985156 311.8799668230006,183.25343759843486 253.9090343986969,251.17804943172482 162.27278869706862,259.1065754692661 161.74106834699973,171.01478623083756 141.19882954281337,105.13289743643145" fill="#4CAF50" fill-opacity="0.3" stroke="#4CAF50" stroke-width="2"/><polygon points="210,61 283.1012436107608,101.70370352620841 304.3730218992005,181.54002640697124 251.99994594657963,247.21378641295416 162.27278869706862,259.1065754692661 151.01686131299965,173.46251650435704 192.79970738570336,146.28322435910786" fill="#FF9800" fill-opacity="0.3" stroke="#FF9800" stroke-width="2"/><text x="210" y="34" text-anchor="middle" font-size="8">File Purposes</text><text x="311.6380927208439" y="82.94632575836465" text-anchor="middle" font-size="8">Dependencies</text><text x="336.7406285836371" y="192.92772141432087" text-anchor="middle" font-size="8">Data Flow</text><text x="266.40488608528256" y="281.1259528273145" text-anchor="middle" font-size="8">Shared Res</text><text x="153.59511391471744" y="281.1259528273145" text-anchor="middle" font-size="8">Entry</text><text x="83.25937141636292" y="192.9277214143209" text-anchor="middle" font-size="8">Token</text><text x="108.36190727915611" y="82.94632575836467" text-anchor="middle" font-size="8">Time</text></svg>